<?xml version="1.0" encoding="UTF-8" standalone="no"?>
<!-- Created with Inkscape (http://www.inkscape.org/) -->

<svg
   version="1.1"
   id="svg2"
   width="946.69336"
   height="1015.1333"
   viewBox="0 0 946.69336 1015.1333"
   sodipodi:docname="GenBio2024 bag.eps"
   xmlns:inkscape="http://www.inkscape.org/namespaces/inkscape"
   xmlns:sodipodi="http://sodipodi.sourceforge.net/DTD/sodipodi-0.dtd"
   xmlns="http://www.w3.org/2000/svg"
   xmlns:svg="http://www.w3.org/2000/svg">
  <defs
     id="defs6" />
  <sodipodi:namedview
     id="namedview4"
     pagecolor="#ffffff"
     bordercolor="#000000"
     borderopacity="0.25"
     inkscape:showpageshadow="2"
     inkscape:pageopacity="0.0"
     inkscape:pagecheckerboard="0"
     inkscape:deskcolor="#d1d1d1" />
  <g
     id="g8"
     inkscape:groupmode="layer"
     inkscape:label="ink_ext_XXXXXX"
     transform="matrix(1.3333333,0,0,-1.3333333,0,1015.1333)">
    <g
       id="g10"
       transform="scale(0.1)">
      <path
         d="m 4877.29,6346.78 c 83.84,2.01 167.6,-5.24 251.53,-3.41 46.79,-0.61 88.78,-1.63 135.6,-2.67 -0.99,-36.48 -0.9,-70.7 -7.07,-103.42 -25.15,-8.65 -52.06,-8.3 -78.22,-8.48 -56.16,3.54 -106.32,-0.87 -159.31,2.97 -97.08,0.57 -141.91,5.1 -235.85,4.37 -170.12,3.15 -340.33,-1.75 -510.36,4.11 -48.97,0.79 -97.93,-3.58 -146.82,-0.26 -9.89,12.76 -6.25,21.88 -3.82,40.49 1.93,36.09 1.98,70.06 20.76,99.16 26.24,-8.21 51.23,-22.81 79.23,-23.42 33.63,-0.96 67.33,0.52 100.87,-1.4"
         style="fill:#253f7a;fill-opacity:1;fill-rule:nonzero;stroke:none"
         id="path12" />
      <path
         d="m 4587.88,5599.68 c 85.19,54.42 155.79,94.21 204.74,120.6 25.16,13.56 49.57,25.27 97.24,51 63.98,34.52 122.85,63.48 186.49,98.44 36.05,19.84 69.34,44.48 104.13,66.51 93.24,59.16 182.11,132.31 240.38,230.01 32.45,52.09 45.03,114.92 47.54,176.27 0.76,36.18 -4.24,71.91 -13.16,107.76 -14.49,58.22 -25.71,92.65 -55.34,157.9 -15.7,34.57 -44.82,88.26 -67.74,123.56 -15.4,23.73 -16.74,33.7 -39.84,65.41 -1.88,2.58 -18.49,31 -15.52,29.84 45.04,-17.49 87.64,-63.14 117.07,-90.68 38.48,-35.74 107.65,-110.2 144.63,-147.6 34.12,-35.22 47.75,-56.61 74.58,-97.86 30.52,-48.16 53.49,-93.67 67.74,-150.56 14.51,-60.56 22.43,-108.93 21.51,-172.03 0.08,-56.19 -11.31,-111.58 -33.79,-164.12 -32.54,-76.07 -65.57,-126.65 -119.21,-181.98 -41.09,-42.37 -84.2,-82.34 -102.61,-99.68 -57.17,-53.83 -110.26,-83.54 -135.03,-99.34 -253.94,-161.99 -380.91,-242.99 -444.89,-282.42 -48.44,-29.85 -94.39,-58.4 -186.28,-115.51 -57.79,-35.91 -264.01,-165.24 -432.31,-327.37 -21.33,-20.56 -55.31,-59.65 -78.39,-119.38 -19.96,-51.65 -19.03,-111.6 2.77,-162.55 17.1,-40.38 44.77,-75.07 76.13,-104.35 33.95,-31.55 84.08,-61.43 123.99,-83.1 72.1,-39.68 183.23,-103.18 263.13,-143.54 -55.03,27.8 -129.65,-74.51 -209.04,-85.09 -24.1,-3.21 21.45,-12.08 0,0 -65.82,37.07 -78.81,52.63 -173.63,105.58 -77.58,43.33 -138.39,89.58 -156.77,103.46 -50.33,38.03 -167.11,126.27 -208.62,281.37 -9.76,36.47 -31.86,138.3 5.12,250.44 4.23,12.82 13.77,39.54 43.24,90.6 24.53,42.49 97.15,161.25 246.26,293.38 44.53,39.46 107.91,90.78 190.24,142.71 71.75,44.11 143.49,88.21 215.24,132.32"
         style="fill:#253f7a;fill-opacity:1;fill-rule:nonzero;stroke:none"
         id="path14" />
      <path
         d="m 4505.41,4951.85 c 18.87,5.93 74.18,9.06 87.8,6.32 206.23,-3.47 381.85,-6.42 588.08,-9.88 91.57,-2.04 183.13,-4.08 274.7,-6.12 -7.68,-6.09 -18.76,-16.02 -29.3,-30.61 -12.33,-17.07 -14.13,-26.95 -25.02,-41.39 -6.99,-9.28 -18.57,-21.53 -38.02,-32.2 -14.04,-1.11 -37.7,-2.65 -67.09,-2.75 -49.98,-0.17 -86.99,4.81 -96.26,4.87 -223.53,1.54 -447.06,3.09 -670.58,4.63 -38.38,2.07 -79.14,-6.75 -115.12,6.21 0,11.67 77.54,96.74 90.81,100.92"
         style="fill:#253f7a;fill-opacity:1;fill-rule:nonzero;stroke:none"
         id="path16" />
      <path
         d="m 4749.4,4062.47 c 62.05,43.52 87.07,97.75 160.61,116.01 15.06,-6.76 37.44,-16.78 64.55,-28.81 270.94,-120.18 284.89,-117.21 353.96,-153.01 119.08,-61.72 244.05,-130.64 315.42,-274.41 36.14,-72.8 56.68,-158.44 38.82,-239.98 -14.51,-69.3 -37.98,-138.17 -79.99,-194.8 -28.17,-37.31 -60.2,-71.22 -93.57,-103.56 -42.84,-41.34 -93.23,-72.88 -143.29,-103.82 -54.94,-29.36 -96.76,-45.75 -154.19,-74.9 -50.4,-23.61 -55.1,-23.9 -84.68,-34.95 4.44,9.52 26.25,22.42 35.55,27.66 9.07,5.18 26.4,15.4 47.07,29.8 194.09,135.25 362.06,416.79 280.92,603.12 -9.53,21.89 -19.74,35.99 -40.82,63.64 -83.76,109.85 -188.95,158.61 -285.83,201.18 -152.19,66.87 -291.23,121.71 -414.53,166.83"
         style="fill:#253f7a;fill-opacity:1;fill-rule:nonzero;stroke:none"
         id="path18" />
      <path
         d="m 4256.46,3446.09 c -27.84,0.44 -76.43,-4.46 -103.77,-8.91 -7.63,15.03 -26.73,37.81 -6.86,53.41 2.6,36.62 1.3,72.41 22.85,100.2 39.74,-6.56 74.28,-22.7 114.69,-20.78 69.99,-4.02 146.31,-4.8 199.39,-5.33 145.47,-0.26 266.72,3.23 436.32,-1.57 58.78,-0.79 80.21,-4.2 176.24,-2.8 61.29,-4.63 122.67,-0.09 184.04,-1.31 23.4,-0.79 48.63,-1.49 68.5,-16.25 4.36,-31.47 -6.45,-63.71 -22.38,-90.02 -19.71,-8.83 -41.59,-7.51 -62.47,-8.04"
         style="fill:#253f7a;fill-opacity:1;fill-rule:nonzero;stroke:none"
         id="path20" />
      <path
         d="m 4557.19,3939.25 c -5.22,-2.69 -10.57,-5.66 -16.02,-8.95 -17.66,-10.68 -32.39,-22.38 -44.46,-33.58 125.85,-12.59 255.67,-9.39 381.86,-13.06 42.09,-1.92 84.18,2.89 126.18,0.09 35.97,-1.75 68.17,-20.19 99.78,-36.44 36.97,-19.93 75.96,-38.37 105.56,-69.92 -40.51,-1.7 -40.51,-1.7 -61.72,-0.83 -21.84,0.9 -37.56,0.7 -47.18,0.75 -61.36,0.3 -209.21,4.69 -380.07,3.85 0,0 -126.79,-0.62 -337.57,1.48 -22.1,0.22 -32.94,1.26 -36.95,1.75 -9.43,1.16 -8.18,1.9 -14.1,-1.6 -65.11,-41.28 -97.26,-81.81 -129.96,-119.62 -28.62,-43.48 -31.42,-53.26 -46.36,-134.25 4.05,-18.68 -10.35,-32.71 10.46,-123.04 19.23,-57.01 19.23,-57.01 43.68,-87.73 14.15,-15.28 49.47,-22.81 74.96,-26.83 144.55,-7.17 289.35,-0.96 433.98,-3.94 75.04,-2.27 150.17,0.62 225.21,-1.92 103.46,-5.33 204.38,2.11 313.98,-1.59 -18.62,-31.46 -44.34,-73.22 -71.67,-96.9 -13.08,-12.15 -31.19,-13.28 -47.71,-13.98 -114.95,-2.28 -229.73,6.2 -344.6,4.28 -83.68,5.51 -145.19,3.56 -251.12,5.24 -100.29,1.5 -145.55,3.85 -218.41,5.51 -20.29,-0.18 -41.92,1.22 -60.2,-9.88 20.62,-36.96 47.54,-69.47 75.29,-100.76 14.26,-17.04 58.24,-56.84 62.44,-80.08 -25.78,11.71 -358.64,169.37 -404.52,502.1 -21.02,152.4 26.68,279.85 33.37,297.13 47.75,123.39 128.99,200.93 228.79,296.18 60.51,57.75 118.4,101.58 164.3,136.91 69.17,53.25 118.91,83.44 176.39,123.19 94.24,65.67 152.59,96.72 238.19,148.89 33.71,20.02 68.5,38.46 99.1,63.71 -58.85,6.12 -118.05,2.45 -177.07,2.98 -67.08,-0.09 -134.07,3.58 -201.15,2.35 -36.22,-0.08 -72.69,-2.7 -108.74,2.28 -49.72,5.07 -82.09,60.3 -80.75,109.06 76.68,-5.74 561.07,-41.37 676.32,-17.31 17.34,3.62 32.92,8.31 32.92,8.31 48.54,16.85 85.45,41.43 159.28,90.59 60.81,40.49 108.43,79.1 141.37,107.67 23.41,18.62 67.39,58.74 98.13,125.96 30.01,65.61 32.77,124.99 32.18,155.57 -50.72,9.96 -102.7,8.91 -154.1,9.96 -131.47,0.52 -262.94,-1.31 -394.32,1.66 -50.73,1.05 -101.79,-2.45 -152.18,4.81 29.93,35.04 71.86,54.7 109.84,78.56 25.23,16.17 54.33,24.65 84.09,24.04 148.49,1.66 297.06,-11.28 445.55,-3.94 -7.04,33.74 -36.64,53.49 -60.53,73.94 -80.66,65.89 -185.68,102.59 -276.23,151.45 38.23,24.55 80.35,59.34 120.26,80.92 90.06,-26.21 279.57,-96.41 415.84,-280.5 45.6,-61.59 112.54,-154.58 117.25,-286.49 3.18,-89.24 -23.5,-157.47 -40.15,-198.83 -55.92,-138.86 -148.16,-225.22 -220.43,-284.98 -159.69,-132.07 -492.49,-348.33 -948.28,-584.22"
         style="fill:#c12537;fill-opacity:1;fill-rule:nonzero;stroke:none"
         id="path22" />
      <path
         d="m 5209.97,6650.3 c 21.94,-32.81 28.05,-54.64 40.38,-91.99 -236.47,-3.39 -476.48,-3.98 -719.94,-1.52 -85.18,0.86 -169.92,2.09 -254.22,3.67 -28.36,-2.05 -34.46,-0.37 -38.32,-5.69 -44.83,-45.16 -62.69,-80.23 -90.16,-157.82 -8.26,-23.34 -17.37,-58.97 -19.19,-106.43 -1.45,-37.7 -4.47,-116.71 44.27,-182.01 11.83,-15.85 23.89,-27.11 32.64,-34.39 61.71,-10.66 109.04,-4.08 187.31,-5.33 110.06,-5.14 192.42,-3.85 288.67,-5.68 95,1.05 190,-1.66 285.07,-1.75 44.86,-0.61 90.81,5.24 134.91,-6.82 -18.11,-28.22 -48.71,-42.38 -74.79,-60.91 -26.75,-17.21 -52.24,-29.89 -84.44,-33.82 -20.72,-0.5 -52.45,-1.17 -91.15,-1.56 -90.9,-0.91 -181.81,1.01 -272.71,2.05 -59.41,0.68 -90.02,0.99 -134.25,-0.55 -42.74,-1.48 -77.9,-3.96 -101.54,-5.88 122,-78.74 240.31,-124.77 374.04,-177.29 23.14,-8.92 74.42,-33.42 96.13,-45.74 -43.09,-22.9 -78.33,-43.59 -120.34,-68.58 -103.56,39.46 -205.69,80.6 -266.82,109.92 -166.6,79.88 -227.75,126.79 -248.35,143.06 -44.74,35.35 -92.36,77.72 -142.02,145.81 -26.05,35.72 -64.01,94.5 -77.74,174.86 -27.99,163.9 70.94,298.28 87.8,321.19 61.84,84 132.03,124.92 226.07,177.69 94.76,53.18 180.54,82.45 241.86,99.21 -94.84,-62.41 -129.61,-87.77 -148.1,-103.76 -0.58,-0.5 -30.69,-21.44 -33.86,-23.53 -38.61,-25.39 -28.59,-31.66 -28.52,-35.29 0.33,-16.04 398.67,-21.05 907.31,-21.12"
         style="fill:#c12537;fill-opacity:1;fill-rule:nonzero;stroke:none"
         id="path24" />
      <path
         d="m 1315.7,4529.15 c -18.87,-46.76 -25.41,-97.71 -32.53,-147.61 -4.7,-46.75 -10.82,-93.95 -6.71,-140.96 31.86,-4.55 63.97,-2.8 96,-3.06 167.69,0.26 335.38,0 503.07,0.17 100.28,-0.17 200.97,-4.98 300.83,6.56 -47.62,62.57 -119.31,98.84 -190.91,122.43 -187.4,58.12 -380.24,93.43 -570.31,140.01 -33.12,7.6 -65.65,18.79 -99.44,22.46 z m 1345.03,86.95 c -20.96,-33.99 -37.56,-71.05 -49.05,-109.59 32.37,-13.54 66.83,-20.1 100.62,-28.58 92.73,-22.89 185.96,-43.95 278.28,-68.77 58.52,-14.86 117.04,-32.51 177.66,-35.14 -45.44,35.4 -99.1,56.46 -149.66,82.33 -102.04,47.19 -201.73,99.71 -303.69,147.08 -16.26,7.34 -32.78,14.42 -50.13,18.35 z m -1277.45,91.24 c -20.63,-40.64 -39.24,-83.29 -49.56,-128.12 44.27,-13.98 89.97,-21.93 134.66,-34.08 152.43,-36.79 303.77,-79.7 457.96,-107.76 -28.09,21.15 -59.28,37.15 -90.3,52.79 -115.04,59.6 -232.84,113.09 -349.05,170.07 -34.29,16.25 -66.65,38.1 -103.71,47.1 z m 1416.55,101.29 c -22.22,-20.36 -39.66,-45.53 -58.19,-69.39 -16.43,-22.46 -35.05,-44.75 -42.42,-72.54 23.39,-14.94 48.88,-25.78 73.7,-38.01 108.49,-52.96 217.66,-104.61 325.48,-159.23 41.84,-20.28 83.93,-41.6 129.62,-51.21 -26.16,47.89 -69,81.88 -108.66,116.84 -83.59,69.83 -161.74,146.47 -244.57,217.17 -23.98,20.1 -46.79,42.73 -74.96,56.37 z M 1518.6,4902.4 c -24.4,-20.89 -42.34,-48.33 -61.54,-74.11 -16.18,-23.33 -34.88,-46.23 -42.01,-74.72 15.6,-11.1 32.79,-19.66 49.81,-28.23 117.88,-58.29 237.28,-113.43 354.41,-173.3 50.97,-24.9 101.62,-52.43 157.04,-64.93 -30.1,49.64 -74.54,86.96 -117.22,124.27 -89.04,75.68 -173.64,156.79 -261.59,233.87 -24.32,20.88 -47.12,44.13 -74.54,60.56 z m 1481.37,62.31 c -28.18,-10.66 -52.32,-29.8 -76.47,-47.63 -26.91,-21.06 -55.76,-40.99 -75.71,-69.82 21.46,-27.45 48.8,-48.94 74.03,-72.37 79.07,-72.01 159.73,-142.01 238.04,-214.89 38.31,-34.7 76.72,-71.67 124.59,-91.42 -13.5,56.11 -43.51,105.49 -72.94,153.73 -56.26,90.62 -108.83,183.61 -163.25,275.46 -13.92,23.24 -26.41,47.54 -43.18,68.6 z m 640.99,88.36 c -30.52,-102.95 -51.73,-208.79 -78.4,-312.96 -18.44,-77.43 -43.01,-154.33 -45.19,-234.73 45.36,48.85 76.38,109.41 109.75,167.18 52.15,93.86 111.35,183.26 160.9,278.61 8.22,16.25 16.18,32.77 21.13,50.51 -37.56,18.18 -77.56,30.15 -116.63,44.04 -16.68,4.2 -34.46,13.29 -51.56,7.35 z m -430.13,8.04 c -55.58,-16.96 -111.42,-36.88 -161.81,-67.12 5.61,-16 13.75,-30.94 22.3,-45.45 67.41,-111.07 133.48,-223.02 197.45,-336.2 22.89,-39.15 45.95,-79.96 81.83,-107.75 -5.7,76.55 -27.16,150.66 -45.36,224.77 -20.29,76.21 -34.46,154.08 -55.5,230.11 -9.73,34.69 -17.11,70.61 -33.29,102.86 z m 250.11,21.93 c -5.45,-49.46 -2.68,-99.36 -3.69,-149 0.84,-125.67 -4.44,-251.69 5.96,-377.02 24.48,52.18 35.55,109.59 49.21,165.61 22.98,117.37 66.58,230.72 75.21,350.88 -41.25,10.14 -84.43,12.68 -126.69,9.53 z m -1735.58,-6.12 c -29.18,-12.23 -54.08,-32.94 -79.65,-51.56 -29.26,-22.63 -60.28,-44.13 -83.26,-74.11 19.96,-29.27 47.46,-51.65 72.86,-75.5 88.79,-82.42 181.11,-160.54 269.31,-243.66 39.91,-36.61 80.74,-75.15 131.8,-93.85 -19.28,65.36 -58.35,121.47 -92.39,178.98 -74.12,118.67 -140.19,242.6 -213.97,361.36 z m 1637.65,11.36 c -29.26,-3.93 -58.94,-6.81 -87.28,-15.81 1.09,-27.36 7.21,-54.19 13,-80.75 23.47,-102.87 50.55,-204.77 73.78,-307.63 12.91,-52 21.97,-105.74 44.61,-154.42 5.7,53.05 5.45,106.53 5.86,159.84 0.42,113.52 0.34,227.05 -1.34,340.57 -0.5,20.36 -0.92,40.81 -3.6,61 -15.09,0.35 -30.1,-1.14 -45.03,-2.8 z m -958.34,82.77 c -17.52,-38.98 -23.64,-82.07 -34.54,-123.23 -50.23,-200.48 -86.71,-339.96 -128.8,-542.44 -20.74,-112.57 -30.37,-247.18 -33.73,-300.23 -5.61,-84.51 -2.48,-86.57 -3.82,-171.08 -0.17,-81.28 -6.37,-163.43 7.54,-243.83 10.57,-64.58 58.7,-122.17 120.24,-138.08 37.22,-9.79 75.96,-9 114.03,-9.09 215.31,1.31 430.54,0.44 645.85,0.26 23.48,0 47.12,-0.78 70.51,2.19 4.28,33.12 2.6,66.68 3.27,99.98 -0.16,60.56 1.51,121.73 -9.3,181.51 -5.96,39.94 -41.51,63.45 -72.44,81.8 -45.78,27.35 -99.78,32.95 -151.6,31.02 -111.68,-4.02 -223.53,-2.35 -335.29,-4.54 -82.25,1.05 -164.75,-2.27 -246.84,3.93 -4.69,50.43 0.25,101.12 1.68,151.54 9.22,208.17 74.28,413.37 185.88,586.32 41,63.88 88.88,122.52 138.35,179.42 13.16,15.55 26.74,30.93 37.64,48.5 -26.91,33.65 -65.73,53.48 -100.36,77.08 -65.15,38.71 -133.82,75.42 -208.27,88.97 z m -452.26,11.53 c -33.2,-8.56 -64.64,-23.33 -96.84,-35.22 -27.75,-11.18 -57.1,-20.19 -81.24,-39.06 13.75,-38.28 36.55,-72.01 56.17,-107.15 55,-96.83 114.87,-190.51 168.7,-287.95 28.5,-49.91 57.52,-100.77 99.19,-140.1 -7.13,97.8 -37.06,191.31 -59.62,285.95 -19.11,79.27 -37.81,158.53 -57.01,237.8 -7.21,29.19 -12.91,58.99 -23.9,86.95 z m 258.41,22.9 c -2.35,-17.48 -2.85,-35.22 -3.02,-52.96 0.17,-122.35 -0.58,-244.61 0.09,-366.88 0.33,-55.93 -0.59,-112.03 4.94,-167.79 14.34,36.7 23.4,75.33 33.21,113.52 30.1,118.42 57.43,237.62 85.69,356.48 7.63,33.03 17.6,65.54 22.47,99.1 -46.37,14.16 -95.34,17.83 -143.38,18.53 z m -139.1,-3.85 c -20.2,-2.18 -40.49,-4.1 -60.36,-8.65 0.16,-26.39 6.37,-52.09 12.15,-77.69 27.76,-119.12 59.78,-237.1 85.69,-356.74 12.75,-54.09 23.56,-109.85 49.72,-159.05 5.95,61.78 3.86,124.01 4.19,186.06 0.26,122.35 -0.67,244.78 0.67,367.13 0,17.57 -0.41,35.13 -2.59,52.53 -29.85,2.18 -59.7,-0.97 -89.47,-3.59 z m 294.3,455.41 c -17.02,-40.82 -27.67,-84.16 -39.58,-126.81 -9.81,-40.11 -21.46,-80.49 -22.72,-122.18 31.78,-13.89 66.07,-19.57 99.11,-29.19 159.09,-56.56 228.39,-83.24 346.61,-154.24 34.79,-24.3 64.98,-55.32 101.2,-77.52 21.21,-13.81 46.95,-15.21 71.27,-13.37 -30.86,78.04 -89.63,138.52 -145.64,197.51 -101.54,108.1 -212.55,207.38 -335.38,288.39 -23.64,14.68 -46.45,34.87 -74.87,37.41 z m 117.3,206.77 c -25.66,-26.75 -43.02,-60.48 -61.13,-92.9 -9.89,-19.93 -22.13,-40.29 -22.72,-63.45 16.85,-14.94 36.31,-26.3 54.75,-38.89 150.5,-101.11 289.6,-221.45 407.91,-361.8 34.54,-39.77 65.73,-82.94 104.21,-118.77 -5.97,17.48 -15.16,42.11 -28.48,70.59 -19.21,41.06 -37.63,70.06 -47.98,86.19 -72.53,113 -131.39,194.97 -131.39,194.97 -73.53,100.24 -148.9,199.35 -231.91,291.37 -12.07,13.37 -24.9,26.04 -39.16,36.71 z M 2673.56,6076 c -31.61,-21.07 -56.51,-50.87 -83.09,-78.05 -22.89,-25.08 -48.13,-48.5 -66.24,-77.69 2.85,-9 8.05,-16.95 13.75,-24.38 171.21,-206.51 340.66,-418.09 466.26,-658.85 8.55,-22.29 30.86,-28.32 51.57,-30.94 -5.87,26.22 -15.1,51.47 -23.82,76.73 -84.68,246.88 -201.89,479.52 -312.82,714.26 -13.08,27.53 -24.65,56.02 -40.58,82.06 z m 227.22,156.17 c -37.4,-16.96 -71.35,-40.73 -106.32,-62.4 -25.49,-16.87 -52.99,-32.07 -73.03,-56.2 7.8,-27.61 21.38,-52.87 33.21,-78.82 105.22,-230.11 219.17,-456.54 307.12,-694.78 13.5,-35.3 22.55,-72.53 39.32,-106.35 16.44,2.01 32.7,7.43 46.62,17.04 -1.26,31.72 -9.05,62.57 -14.67,93.6 -45.78,244.87 -119.48,482.49 -177,724.31 -14.67,55.84 -25.99,113.26 -49.89,165.78 z m 234.09,95.17 c -59.11,-18.44 -118.64,-38.81 -173.81,-67.82 0.17,-13.11 2.52,-25.96 5.03,-38.71 39.83,-181.69 92.23,-359.97 136.84,-540.44 28.5,-111.86 53.32,-224.69 78.39,-337.42 5.95,-25.7 10.82,-51.91 20.96,-76.3 21.22,-3.58 43.1,-2.27 64.31,1.31 4.11,59.95 -5.2,119.91 -10.39,179.6 -34.63,294.25 -79.15,587.27 -109.51,882.14 -2.93,-0.62 -8.88,-1.75 -11.82,-2.36 z m 160.98,35.48 c -31.77,-4.37 -64.72,-8.92 -93.15,-25.26 -3.31,-5.98 -4.23,-12.63 -4.36,-19.41 -0.19,-10.22 0.1,-17.93 0.42,-20.26 37.97,-276.71 62.79,-555.25 100.03,-832.07 5.28,-39.29 13.44,-101.67 22.47,-179.24 28.76,-5.42 58.44,-4.55 87.28,-0.09 7.29,51.04 4.19,102.95 6.37,154.34 1.34,209.74 -0.67,419.57 1.18,629.31 1.42,75.94 0.92,151.89 -0.09,227.83 -0.58,23.34 -1.17,46.85 -6.12,69.74 -38.06,3.32 -76.21,-0.87 -114.03,-4.89 z m 173.23,10.14 c -8.47,-50.87 -2.44,-102.87 -3.69,-154.16 -1.34,-297.23 -12.08,-594.36 -6.38,-891.58 0.42,-13.64 1.18,-27.45 3.27,-40.99 28.85,-3.5 58.28,-3.67 87.04,1.05 8.04,41.25 8.88,83.54 14.33,125.14 34.97,299.06 93.91,594.71 121.16,894.82 1.17,16.34 1.76,32.86 0.25,49.2 -70.85,13.98 -143.88,19.14 -215.98,16.52 z m 7.88,201.7 c 205.57,1.35 359.23,-43.29 404.21,-57.16 33.59,-10.35 61.32,-20.42 81,-27.96 -17.87,-30.06 -37.73,-71.48 -49.94,-123.49 -4.84,-20.64 -7.8,-40.02 -9.51,-57.68 -52.26,12.7 -104.53,25.4 -156.79,38.11 -16.39,-113.24 -30.7,-205.21 -40.41,-266.3 -51.45,-323.81 -82.34,-464.87 -97.09,-699.31 -3.08,-48.85 -4.64,-88.75 -5.45,-113.78 21.63,-3.23 43.68,-4.37 65.48,-1.57 2.5,7.94 6.28,20.07 10.73,34.87 51.1,169.72 63.42,248.95 81.69,343.78 22.08,114.55 60.84,323.95 141.84,664.2 1.19,-63.69 4.84,-88.04 20.13,-149.94 0,0 -13.68,-44.95 -14.64,-48.63 -63.14,-242.42 -116.67,-504.24 -170.24,-749.2 -7.47,-37.05 -19.12,-73.32 -22.64,-111.16 13.16,-13.55 34.46,-13.55 52.07,-14.6 5.03,9.61 8.97,19.75 12.74,29.89 65.06,191.91 150.67,375.26 236.19,557.91 14.92,31.64 27.92,64.59 47.79,93.17 11.57,-7.87 22.6,-25.13 34.62,-32.91 -20.92,-31.15 -27.41,-51.17 -39.82,-78.26 -77.89,-166.39 -154.69,-333.66 -218.41,-506.61 -12.75,-32.95 -24.29,-64.41 -17.4,-91.94 15.66,0 38.27,25.78 51.27,47.8 33.2,55.85 62.55,114.05 98.27,168.23 66.99,106.1 141.95,206.51 219.84,304.13 16.26,20.1 31.02,41.86 50.14,59.25 14.67,-1.13 27.83,-9.44 38.31,-19.92 -9.22,-16.17 -20.71,-30.68 -32.11,-45.18 -47.29,-58.82 -93.15,-119.12 -137.34,-180.65 -59.02,-81.97 -118.05,-164.47 -167.27,-253.43 -19.11,-33.91 -36.22,-69.22 -48.38,-106.62 54.76,53.74 100.2,116.67 151.76,173.65 112.69,123.04 240.89,229.58 376.05,324.48 22.38,15.91 8.3,20.76 68.58,-15.73 -42.82,-25.72 -286.19,-173.77 -433,-354.25 -53.13,-65.32 -91.28,-125.09 -91.28,-125.09 -35.05,-54.92 -60.69,-105.84 -113.19,-205.99 -25.71,-49.06 -20.92,-48.07 -41,-79.26 -47.54,-73.85 -87.2,-152.85 -133.98,-227.22 -37.73,-64.68 -83.51,-126.46 -104.05,-200.05 101.7,47.28 168.61,146.65 260.67,208.78 3.94,-15.38 18.32,-41.16 13.79,-57.24 -33.38,-29.94 -58.98,-41.16 -85.9,-65.72 -48.46,-43.08 -100.95,-83.46 -137.17,-138.95 99.02,22.55 182.36,87.39 276.94,121.82 11.91,-9.08 20.29,-22.72 23.06,-37.92 -79.15,-43.79 -163.25,-78.05 -240.55,-125.76 64.06,7.08 126.86,23.16 189.66,37.4 33.78,7.26 66.82,20.71 101.61,20.8 16.44,-5.77 27.84,-20.89 34.63,-36.97 -45.69,-12.76 -92.39,-21.41 -138.26,-33.21 -81.24,-20.18 -165.76,-32.77 -241.05,-72.44 -61.21,-31.81 -109.42,-85.12 -147.4,-143.5 -16.77,-25.35 -30.85,-52.61 -49.3,-76.82 -44.6,60.74 -81.75,128.9 -140.02,177.32 -66.15,58.12 -153.52,75.24 -235.27,95.61 -129.54,29.8 -258.41,62.57 -387.36,94.91 -27.92,6.9 -55.5,16.16 -84.1,19.48 -14.16,-31.2 -20.62,-65.28 -28.75,-98.58 -8.89,-40.98 -19.46,-82.06 -21.38,-124.27 27.16,-4.19 54.83,-3.76 82.25,-3.76 75.37,1.14 150.83,-0.08 226.21,3.33 79.48,3.23 160.65,8.04 238.45,-13.03 101.62,-27.79 185.13,-109.41 228.14,-207.99 31.53,-72.71 34.21,-154.34 34.13,-232.81 -1.43,-208.87 0.5,-417.74 -1.17,-626.43 -59.95,-5.6 -120.66,-4.37 -180.69,-1.32 -7.96,94.56 1.26,189.91 -3.44,284.73 -29.34,5.68 -59.36,4.81 -88.96,4.98 -181.69,-1.14 -363.38,1.05 -544.99,-1.66 -76.21,0.79 -153.6,-3.5 -228.39,14.68 -129.96,30.68 -238.87,143.33 -267.71,279.05 -20.88,100.06 -9.98,203.19 -18.62,304.39 -5.53,0.35 -16.6,1.04 -22.13,1.39 -265.37,-1.13 -530.82,0 -796.27,-0.61 -35.81,0.18 -71.86,-2.27 -107.49,2.97 -4.28,49.38 -0.59,98.93 -1.43,148.4 0.92,67.29 -4.69,135.28 7.46,201.87 14.93,82.76 31.36,165.52 57.94,245.23 106.74,327.19 362.21,599.86 677.72,709.63 75.88,25.34 154.44,41.16 233.17,53.92 16.18,2.88 32.45,5.59 47.96,11.53 7.63,20.28 10.65,42.04 14.67,63.27 23.56,132.93 63.97,263.58 128.79,381.12 116.9,212.02 396.44,510.73 776.48,641.47 74.06,25.47 235.81,73.95 445.3,75.33"
         style="fill:#1f6630;fill-opacity:1;fill-rule:nonzero;stroke:none"
         id="path26" />
      <path
         d="m 3832.29,4230.96 c 47.58,3.68 94.07,8.38 187.17,3.05 126.23,-7.23 228.91,-22 298.12,-33.9 -24.23,-22.19 -51.23,-40.9 -74.7,-63.97 -29.35,-27.61 -91.5,-71.54 -111.31,-103.58 0,0 -42.92,5.37 -66.14,3.79 -78.57,-0.61 -133.53,8.47 -211.76,-0.27 -61.62,-5.6 -115.79,-51.04 -138.93,-110.03 -17.94,-45.88 -17.69,-96.39 -19.12,-145.16 -0.08,-43.52 -2.26,-87.39 2.52,-130.83 75.04,-14.24 148.07,-6.99 235.73,-6.99 0.92,-45.27 -8.49,-73.11 0.4,-118.12 2.77,-20.62 1.59,-64.99 13.55,-87.77 -79.74,-2.98 -170.95,9.17 -250.44,0.34 -5.19,-94.73 3.53,-189.9 -3.27,-284.55 -59.86,-3.05 -120.31,-4.28 -180.01,1.23 -2.01,197.07 0.42,394.23 -1.17,591.3 -0.17,85.55 -1.26,174.26 30.26,254.83 48.63,121.74 160.32,220.67 289.1,230.63"
         style="fill:#1f6630;fill-opacity:1;fill-rule:nonzero;stroke:none"
         id="path28" />
      <path
         d="m 1166.57,2267.72 v -170.79 c 0,-72.62 -11.86,-136.62 -35.58,-191.98 -23.72,-55.37 -57.32,-98.17 -100.81,-128.43 -43.489,-30.26 -93.848,-45.39 -151.075,-45.39 -57.988,0 -108.91,14.23 -152.769,42.7 -43.867,28.47 -77.852,68.69 -101.941,120.7 -24.098,51.99 -36.145,112.3 -36.145,180.88 v 288.47 c 0,72.62 11.859,136.49 35.578,191.63 23.719,55.14 57.324,97.84 100.813,128.09 43.488,30.27 93.839,45.4 151.074,45.4 47.062,0 90.453,-12.01 130.175,-35.98 39.72,-23.99 72.95,-57.94 99.68,-101.88 26.73,-43.93 44.81,-94.8 54.22,-152.63 h -124.81 c -6.78,32.72 -18.27,60.86 -34.45,84.39 -16.194,23.54 -35.21,41.46 -57.046,53.79 -21.839,12.33 -44.429,18.5 -67.769,18.5 -33.887,0 -63.629,-9.65 -89.231,-28.92 -25.609,-19.28 -45.379,-46.29 -59.304,-81.02 -13.934,-34.75 -20.899,-75.21 -20.899,-121.37 v -288.47 c 0,-42.14 7.149,-79.01 21.469,-110.61 14.301,-31.61 34.535,-56.15 60.711,-73.63 26.164,-17.49 56.375,-26.23 90.644,-26.23 33.887,0 63.622,9.08 89.235,27.24 25.598,18.15 45.36,44.48 59.3,79 13.92,34.52 20.89,75.54 20.89,123.06 v 42.36 H 881.926 v 131.12 h 284.644"
         style="fill:#1f6630;fill-opacity:1;fill-rule:nonzero;stroke:none"
         id="path30" />
      <path
         d="m 1442.74,1767.44 c -38.41,24.21 -67.68,59.74 -87.82,106.58 -20.15,46.84 -30.22,103.44 -30.22,169.79 v 78.67 c 0,69.03 9.69,127.98 29.09,176.85 19.39,48.85 47.53,86.06 84.43,111.61 36.9,25.56 81.33,38.33 133.29,38.33 48.94,0 90.73,-14.57 125.37,-43.7 34.64,-29.15 61.09,-71.28 79.35,-126.42 18.26,-55.13 27.4,-121.27 27.4,-198.36 v -45.72 h -395.34 v 110.27 h 285.77 c -3.39,56.93 -15.73,101.19 -36.99,132.81 -21.28,31.6 -49.8,47.4 -85.56,47.4 -43.68,0 -77.47,-17.04 -101.38,-51.11 -23.92,-34.07 -35.86,-82.26 -35.86,-144.57 v -88.76 c 0,-57.82 12.79,-102.2 38.4,-133.13 25.6,-30.93 61.93,-46.4 109,-46.4 23.34,0 46.5,5.6 69.47,16.81 22.96,11.2 43.48,26.9 61.56,47.07 l 75.68,-90.1 c -29,-33.18 -61.56,-58.84 -97.71,-76.99 -36.15,-18.15 -72.48,-27.24 -109,-27.24 -54.22,0 -100.53,12.11 -138.93,36.31"
         style="fill:#1f6630;fill-opacity:1;fill-rule:nonzero;stroke:none"
         id="path32" />
      <path
         d="m 2317.57,2164.17 c 0,49.31 -10.74,87.41 -32.2,114.31 -21.46,26.89 -51.58,40.34 -90.36,40.34 -37.65,0 -66.74,-11.88 -87.26,-35.64 -20.52,-23.76 -30.77,-57.15 -30.77,-100.18 l -11.86,134.48 c 18.07,42.13 41.69,74.63 70.87,97.5 29.17,22.86 61.46,34.29 96.86,34.29 63.62,0 112.86,-24.78 147.69,-74.3 34.82,-49.54 52.24,-119.59 52.24,-210.12 v -423.63 h -115.21 z m -355.81,275.01 h 115.22 v -697.96 h -115.22 v 697.96"
         style="fill:#1f6630;fill-opacity:1;fill-rule:nonzero;stroke:none"
         id="path34" />
      <path
         d="m 2686.92,1868.31 h 222.52 c 58.36,0 100.9,13.21 127.64,39.67 26.73,26.45 40.1,63.65 40.1,111.62 v 2.01 c 0,33.18 -4.8,61.63 -14.4,85.4 -9.6,23.76 -24.76,42.02 -45.47,54.81 -20.71,12.77 -47.25,19.16 -79.63,19.16 h -250.76 v 123.72 h 250.76 c 42.54,0 74.64,11.87 96.29,35.64 21.65,23.75 32.48,58.94 32.48,105.57 0,48.86 -12.06,85.39 -36.15,109.6 -24.1,24.21 -60.24,36.31 -108.43,36.31 h -234.95 v 127.09 h 255.84 c 53.09,0 97.51,-10.76 133.29,-32.28 35.76,-21.51 62.49,-52.01 80.19,-91.44 17.7,-39.46 26.55,-86.53 26.55,-141.21 0,-33.63 -5.46,-65.12 -16.38,-94.48 -10.92,-29.36 -27.58,-54.46 -49.98,-75.31 -22.41,-20.84 -50.18,-34.85 -83.31,-42.02 33.13,-5.83 61.75,-19.83 85.85,-42.03 24.09,-22.19 42.54,-49.87 55.35,-83.04 12.79,-33.18 19.2,-69.04 19.2,-107.59 v -2.01 c 0,-52.9 -9.8,-99.52 -29.37,-139.86 -19.58,-40.35 -47.63,-71.52 -84.15,-93.47 -36.52,-21.97 -79.06,-32.95 -127.64,-32.95 h -265.44 z m -67.77,850.6 h 114.65 v -977.69 h -114.65 v 977.69"
         style="fill:#1f6630;fill-opacity:1;fill-rule:nonzero;stroke:none"
         id="path36" />
      <path
         d="m 3354.48,2439.18 h 115.21 v -697.96 h -115.21 z m 0,279.73 h 115.21 v -137.17 h -115.21 v 137.17"
         style="fill:#1f6630;fill-opacity:1;fill-rule:nonzero;stroke:none"
         id="path38" />
      <path
         d="m 3963.01,1906.63 c 22.03,30.03 33.05,72.17 33.05,126.42 v 115.65 c 0,54.24 -11.02,96.15 -33.05,125.74 -22.03,29.58 -53.18,44.38 -93.48,44.38 -40.29,0 -71.42,-14.8 -93.45,-44.38 -22.03,-29.59 -33.05,-71.5 -33.05,-125.74 v -115.65 c 0,-54.25 11.02,-96.39 33.05,-126.42 22.03,-30.04 53.16,-45.05 93.45,-45.05 40.3,0 71.45,15.01 93.48,45.05 z m -223.92,-139.86 c -36.16,23.76 -63.74,58.39 -82.75,103.9 -19.01,45.48 -28.52,100.29 -28.52,164.4 v 113.63 c 0,63.21 9.51,117.34 28.52,162.39 19.01,45.05 46.59,79.34 82.75,102.88 36.13,23.53 79.62,35.3 130.44,35.3 50.84,0 94.32,-11.77 130.47,-35.3 36.16,-23.54 63.73,-57.83 82.74,-102.88 19,-45.05 28.51,-99.18 28.51,-162.39 v -115.65 c 0,-63.66 -9.51,-118.01 -28.51,-163.06 -19.01,-45.06 -46.58,-79.46 -82.74,-103.22 -36.15,-23.76 -79.63,-35.64 -130.47,-35.64 -50.82,0 -94.31,11.88 -130.44,35.64"
         style="fill:#1f6630;fill-opacity:1;fill-rule:nonzero;stroke:none"
         id="path40" />
      <path
         d="m 4256.98,1860.24 286.32,454.55 c 16.58,25.99 29.47,53 38.7,81.02 9.21,28.01 13.83,54.13 13.83,78.34 v 1.34 c 0,39 -9.6,69.27 -28.81,90.78 -19.19,21.51 -46.5,32.28 -81.88,32.28 -33.52,0 -60.62,-11.77 -81.33,-35.31 -20.71,-23.53 -33.32,-56.81 -37.84,-99.85 v -0.67 h -119.16 v 0.67 c 6.78,56.04 20.61,103.89 41.5,143.56 20.9,39.67 47.91,69.93 81.05,90.78 33.12,20.84 71.35,31.27 114.65,31.27 48.94,0 90.73,-9.98 125.38,-29.93 34.63,-19.95 60.99,-48.98 79.06,-87.08 18.08,-38.1 27.11,-84.05 27.11,-137.84 v -0.67 c 0,-34.52 -6.03,-70.61 -18.07,-108.26 -12.06,-37.66 -28.81,-73.97 -50.26,-108.93 l -237.77,-384.62 h 310.62 v -130.45 h -463.1 v 119.02"
         style="fill:#1f6630;fill-opacity:1;fill-rule:nonzero;stroke:none"
         id="path42" />
      <path
         d="m 5191.38,1899.57 c 19.4,25.32 29.09,61.75 29.09,109.27 v 444.46 c 0,47.51 -9.6,83.94 -28.81,109.27 -19.2,25.32 -49.32,37.99 -90.36,37.99 -41.04,0 -71.16,-12.67 -90.36,-37.99 -19.2,-25.33 -28.8,-61.76 -28.8,-109.27 v -444.46 c 0,-47.52 9.69,-83.95 29.08,-109.27 19.39,-25.33 49.42,-37.99 90.08,-37.99 40.67,0 70.69,12.66 90.08,37.99 z m -264.87,-95.14 c -39.73,48.85 -59.58,117 -59.58,204.41 v 444.46 c 0,87.86 19.95,156.11 59.86,204.76 39.9,48.63 98.08,72.95 174.51,72.95 76.81,0 135.07,-24.2 174.8,-72.62 39.71,-48.42 59.58,-116.78 59.58,-205.09 v -444.46 c 0,-87.86 -19.96,-156.11 -59.87,-204.75 -39.91,-48.64 -98.08,-72.96 -174.51,-72.96 -76.8,0 -135.08,24.44 -174.79,73.3"
         style="fill:#1f6630;fill-opacity:1;fill-rule:nonzero;stroke:none"
         id="path44" />
      <path
         d="m 5492.69,1860.24 286.33,454.55 c 16.57,25.99 29.46,53 38.69,81.02 9.22,28.01 13.84,54.13 13.84,78.34 v 1.34 c 0,39 -9.6,69.27 -28.81,90.78 -19.2,21.51 -46.51,32.28 -81.89,32.28 -33.51,0 -60.62,-11.77 -81.32,-35.31 -20.72,-23.53 -33.33,-56.81 -37.85,-99.85 v -0.67 h -119.16 v 0.67 c 6.78,56.04 20.61,103.89 41.51,143.56 20.9,39.67 47.91,69.93 81.04,90.78 33.13,20.84 71.35,31.27 114.65,31.27 48.95,0 90.73,-9.98 125.38,-29.93 34.63,-19.95 61,-48.98 79.06,-87.08 18.08,-38.1 27.11,-84.05 27.11,-137.84 v -0.67 c 0,-34.52 -6.02,-70.61 -18.06,-108.26 -12.06,-37.66 -28.81,-73.97 -50.27,-108.93 l -237.77,-384.62 h 310.62 v -130.45 h -463.1 v 119.02"
         style="fill:#1f6630;fill-opacity:1;fill-rule:nonzero;stroke:none"
         id="path46" />
      <g
         id="g48"
         transform="scale(10)">
        <text
           xml:space="preserve"
           transform="matrix(0.716406,0,0,-1,599.58,174.22)"
           style="font-variant:normal;font-weight:600;font-size:135.204px;font-family:Bahnschrift;-inkscape-font-specification:Bahnschrift-SemiBold;writing-mode:lr-tb;fill:#1f6630;fill-opacity:1;fill-rule:nonzero;stroke:none"
           id="text52"><tspan
             x="0"
             y="0"
             id="tspan50">4</tspan></text>
      </g>
    </g>
  </g>
</svg>
