<svg width="150" height="150" viewBox="0 0 1229 1228" fill="none" xmlns="http://www.w3.org/2000/svg">
<path fill-rule="evenodd" clip-rule="evenodd" d="M1228.84 1228H0.803711V0H1228.84V1228Z" fill="#FFDE00"/>
<path fill-rule="evenodd" clip-rule="evenodd" d="M188.697 637.953C171.066 637.953 146 627.889 146 573.336C146 512.229 175.934 501.967 194.816 501.967C204.553 501.967 211.987 504.019 218.895 509.713V456.881C218.895 454.564 218.632 453.306 223.039 452.512L247.316 447.414C250.408 446.619 251.395 446.355 251.395 452.512V593.132C251.395 597.303 251.658 609.153 254.224 619.415C255.474 624.579 256 625.572 256 626.632C256 627.625 255.474 628.154 253.697 628.949L232.974 637.423C231.461 638.217 229.881 638.747 228.105 635.106C226.329 631.796 224.816 628.684 223.5 622.461C213.039 633.053 201.526 637.953 188.697 637.953ZM218.895 532.885C213.039 529.244 208.697 527.721 201.526 527.721C196.395 527.721 189.487 528.78 184.355 535.93C179.75 542.154 178.434 551.952 178.434 569.43C178.434 591.344 180.737 598.296 182.842 602.4C187.447 610.941 194.355 612.199 199.947 612.199C207.908 612.199 213.5 610.146 218.895 603.195V532.885V532.885Z" fill="#653598"/>
<path fill-rule="evenodd" clip-rule="evenodd" d="M282.655 530.406C279.798 530.406 279 529.609 279 526.754V510.02C279 507.164 279.798 506.434 282.655 506.434H331.76C335.083 506.434 335.349 507.164 335.349 510.02V630.348C335.349 633.734 334.618 634 331.76 634H306.111C302.789 634 302.523 633.203 302.523 630.348V530.406H282.655V530.406ZM318.803 447C330.431 447 340 456.562 340 468.184C340 479.805 330.431 489.367 318.803 489.367C307.174 489.367 297.606 479.805 297.606 468.184C297.606 456.562 307.174 447 318.803 447Z" fill="#653598"/>
<path fill-rule="evenodd" clip-rule="evenodd" d="M449.998 637.434C448.209 638.229 446.684 638.758 444.629 634.919C442.309 630.219 440.983 626.645 440.254 622.474C430.178 632.801 420.898 637.964 406.182 637.964C382.981 637.964 368 622.474 368 598.777C368 578.984 378.341 569.188 383.777 565.348C396.371 556.346 420.633 554.294 435.282 554.823V546.814C435.282 543.173 435.547 537.017 432.233 532.913C429.913 530.067 425.538 527.75 418.312 527.75C411.617 527.75 403.862 529.272 397.432 531.324C388.682 534.171 386.826 535.495 385.102 535.495C383.511 535.495 382.981 534.766 382.451 532.913L377.082 516.695C375.756 513.121 375.756 512.062 382.451 508.95C393.057 504.052 411.352 502 421.892 502C437.867 502 452.849 505.376 460.604 518.483C465.775 527.22 466.305 538.804 466.305 543.438V593.15C466.305 600.63 466.305 608.904 470.15 618.701C471.939 623.269 473 625.056 473 626.38C473 627.902 471.674 628.697 470.945 628.961L449.998 637.434V637.434ZM435.282 575.94C417.318 575.675 398.957 579.249 398.957 596.526C398.957 607.051 406.712 614.068 415.993 614.068C422.688 614.068 429.648 610.427 435.282 604.271V575.94V575.94Z" fill="#653598"/>
<path fill-rule="evenodd" clip-rule="evenodd" d="M573.967 558.491C573.967 555.879 574.754 553 568.589 553H506.346C500.246 553 501.033 555.879 501.033 558.491V577.509C501.033 580.12 500.246 583 506.346 583H568.654C574.754 583 573.967 580.12 573.967 577.509V558.491Z" fill="#653598"/>
<path fill-rule="evenodd" clip-rule="evenodd" d="M775 630.351C775 633.204 774.735 634 771.424 634H745.927C743.079 634 742.285 633.735 742.285 630.351V550.872C742.285 537.736 741.291 529.178 730.431 529.178C722.484 529.178 714.47 534.618 708.841 539.793V630.351C708.841 633.204 708.576 634 705.199 634H679.702C676.854 634 676.126 633.735 676.126 630.351V550.872C676.126 539.793 676.126 529.178 664.006 529.178C661.159 529.178 653.411 529.709 642.616 539.793V630.351C642.616 633.204 642.351 634 639.039 634H613.543C610.695 634 609.901 633.735 609.901 630.351V552.465C609.901 535.68 608.841 527.918 607.318 521.217C606.059 516.042 605 514.981 605 512.725C605 511.664 605.265 510.138 607.848 509.342L627.45 502.906C632.549 501.115 633.808 501.646 636.192 507.55C637.185 510.138 638.708 516.308 639.503 519.956C651.357 509.872 662.947 502.11 678.709 502.11C691.291 502.11 701.358 508.877 705.199 519.956C717.318 509.607 728.377 502.11 744.602 502.11C774.536 502.11 775 529.709 775 542.911V630.351V630.351Z" fill="#653598"/>
<path fill-rule="evenodd" clip-rule="evenodd" d="M836.467 638C823.338 638 812 626.927 812 613.467C812 600.073 823.338 589 836.467 589C849.595 589 861 600.073 861 613.467C861 626.927 849.595 638 836.467 638Z" fill="#653598"/>
<path fill-rule="evenodd" clip-rule="evenodd" d="M898.733 552.396C898.733 537.39 896.933 528.095 893.333 518.334C892.267 515.745 892 514.417 892 513.421C892 512.624 892.8 511.827 894.333 511.097L914.066 503.062C915.599 502.531 916.599 502 917.399 502C919.466 502 920.532 504.324 921.332 505.652C924.132 511.097 926.199 516.209 926.999 522.451C936.865 508.773 946.464 502 959.931 502C967.93 502 975.73 504.59 973.663 510.565L965.597 532.278C965.397 533.008 964.864 534.535 963.264 534.535C962.53 534.535 961.73 534.004 958.664 533.008C956.797 532.477 955.531 531.68 952.931 531.68C945.931 531.68 937.932 535.863 931.665 544.163V630.348C931.665 633.203 931.398 634 928.065 634H902.333C899.533 634 898.733 633.734 898.733 630.348V552.396Z" fill="#653598"/>
<path fill-rule="evenodd" clip-rule="evenodd" d="M1080.43 637.206C1075.5 638.794 1074.5 637.735 1073.44 636.213C1070.84 632.571 1069.04 626.415 1068.24 622.774C1059.45 630.784 1046.27 638 1028.63 638C1007.19 638 995.002 623.105 995.002 602.251V511.82C995.002 509.503 994.736 508.245 999.863 507.186L1023.7 502.287C1025.83 501.758 1027.83 501.559 1027.83 505.399V589.342C1027.83 597.088 1027.36 610.99 1044.94 610.99C1050.93 610.99 1061.25 607.614 1065.18 602.979V511.82C1065.18 508.245 1064.65 508.51 1074.5 506.458L1093.94 502.287C1096.01 501.758 1098.07 501.559 1098.07 505.399V587.819C1098.07 596.823 1098.07 610.659 1101.93 623.833C1102.73 626.15 1103 627.143 1103 627.937C1103 629.46 1101.4 630.321 1100.14 630.784L1080.43 637.206V637.206Z" fill="#653598"/>
<path fill-rule="evenodd" clip-rule="evenodd" d="M668.686 710.472C668.686 709.711 668.839 709.255 669.761 709.255H671.297C675.494 709.255 679.64 707.429 679.64 702.561C679.64 699.874 678.565 696.223 672.781 696.223C669.198 696.223 666.946 697.592 664.233 699.772C663.823 700.127 663.516 700.381 663.209 700.381C662.953 700.381 662.85 700.229 662.748 700.026L660.701 696.679C660.445 696.223 660.291 695.817 662.083 694.55C666.024 691.761 669.966 691 673.651 691C682.712 691 686.295 696.324 686.295 702.105C686.295 703.068 686.039 708.697 679.947 711.283C684.145 712.5 687.421 715.897 687.421 721.07C687.421 729.335 681.074 734 672.269 734C670.068 734 665.666 733.645 660.649 730.805C659.933 730.349 659.421 730.045 659.421 729.69C659.421 729.487 659.421 729.335 659.523 729.183L661.059 725.785C661.059 725.735 661.212 725.481 661.468 725.38C661.571 725.38 661.571 725.38 661.673 725.38C661.98 725.43 662.339 725.633 662.697 725.785C665.922 727.56 668.839 728.777 672.32 728.777C677.644 728.777 680.408 725.481 680.408 721.374C680.408 714.63 673.446 714.528 672.013 714.528H669.761C668.993 714.528 668.686 714.173 668.686 713.413V710.472V710.472Z" fill="#653598"/>
<path fill-rule="evenodd" clip-rule="evenodd" d="M723.901 721.83C723.901 723.859 724.304 726.445 724.909 727.915C725.161 728.574 725.715 729.69 726.068 730.298C726.32 730.603 726.421 730.805 726.421 730.958C726.421 731.211 726.169 731.363 725.917 731.566L722.388 733.746C721.784 734.101 721.279 734.355 720.171 732.377C719.414 731.11 719.263 730.704 718.557 728.574L718.507 728.321L718.154 728.676C716.239 730.603 712.861 734 706.813 734C698.546 734 695.421 728.017 695.421 722.084C695.421 716.405 698.193 710.725 707.317 708.494C710.14 707.835 714.223 707.328 717.146 707.328H717.499V704.285C717.499 700.736 716.793 696.679 710.392 696.679C707.569 696.679 703.839 697.491 701.067 698.86C700.411 699.215 700.058 699.367 699.806 699.367C699.403 699.367 699.201 699.113 699.151 698.961L697.891 695.564C697.79 695.412 697.79 695.158 697.79 694.854C697.79 694.195 699.05 693.687 699.655 693.434C703.083 691.913 707.367 691 711.148 691C719.616 691 723.901 695.057 723.901 702.561V721.83V721.83ZM717.499 712.601H717.146C703.436 712.601 701.722 718.23 701.722 721.83C701.722 726.8 705.099 728.777 707.871 728.777C711.652 728.777 715.634 725.38 716.995 724.011L717.499 723.504V712.601Z" fill="#653598"/>
<path fill-rule="evenodd" clip-rule="evenodd" d="M738.39 732.834C737.421 732.834 737.421 732.225 737.421 732.124V693.18C737.421 692.521 737.676 692.268 738.033 692.166L739.717 691.761L742.625 691.051C742.982 691 743.237 691 743.288 691C743.9 691 743.9 691.558 743.9 691.761V709.103H747.573C750.634 709.103 752.063 707.683 752.828 704.539L753.95 700.127C754.715 697.085 755.94 693.333 759.664 691.811C760.786 691.406 762.827 691 763.949 691C764.358 691 764.868 691.051 765.021 691.659L765.99 695.462C766.245 696.426 765.378 696.426 764.868 696.476L763.694 696.679C762.725 696.831 761.807 696.984 761.042 697.998C760.837 698.251 760.429 698.961 759.766 701.294L758.797 704.691C758.236 706.973 757.113 710.218 753.185 711.384C757.011 712.399 758.287 715.187 758.797 716.81L761.45 724.923C761.705 725.633 762.215 726.8 762.827 727.307C763.235 727.662 763.95 727.915 765.276 728.169L766.296 728.321C767.061 728.422 767.674 728.422 767.316 729.487L766.245 733.341C766.041 734 765.48 734 765.021 734C762.419 734 760.786 733.594 759.817 733.138C756.348 731.718 755.736 728.777 754.664 724.873L752.93 718.838C751.807 714.883 750.226 714.376 747.675 714.376H743.9V732.124C743.9 732.225 743.9 732.834 742.982 732.834H738.39V732.834Z" fill="#653598"/>
<path fill-rule="evenodd" clip-rule="evenodd" d="M801.901 721.83C801.901 723.859 802.304 726.445 802.909 727.915C803.161 728.574 803.766 729.69 804.068 730.298C804.32 730.603 804.421 730.805 804.421 730.958C804.421 731.211 804.169 731.363 803.917 731.566L800.388 733.746C799.784 734.101 799.279 734.355 798.171 732.377C797.414 731.11 797.263 730.704 796.608 728.574L796.507 728.321L796.154 728.676C794.239 730.603 790.861 734 784.813 734C776.546 734 773.421 728.017 773.421 722.084C773.421 716.405 776.193 710.725 785.317 708.494C788.14 707.835 792.223 707.328 795.146 707.328H795.499V704.285C795.499 700.736 794.844 696.679 788.442 696.679C785.569 696.679 781.839 697.491 779.066 698.86C778.411 699.215 778.058 699.367 777.806 699.367C777.403 699.367 777.201 699.113 777.151 698.961L775.891 695.564C775.79 695.412 775.79 695.158 775.79 694.854C775.79 694.195 777.05 693.687 777.655 693.434C781.083 691.913 785.367 691 789.198 691C797.616 691 801.901 695.057 801.901 702.561V721.83V721.83ZM795.499 712.601H795.146C781.436 712.601 779.772 718.23 779.772 721.83C779.772 726.8 783.099 728.777 785.871 728.777C789.702 728.777 793.634 725.38 794.995 724.011L795.499 723.504V712.601Z" fill="#653598"/>
<path fill-rule="evenodd" clip-rule="evenodd" d="M821.322 710.472C821.322 709.711 821.52 709.255 822.41 709.255H823.893C827.948 709.255 831.904 707.429 831.904 702.561C831.904 699.874 830.916 696.223 825.278 696.223C821.817 696.223 819.69 697.592 817.02 699.772C816.624 700.127 816.377 700.381 816.031 700.381C815.783 700.381 815.734 700.229 815.635 700.026L813.657 696.679C813.41 696.223 813.262 695.817 814.992 694.55C818.751 691.761 822.558 691 826.119 691C834.871 691 838.333 696.324 838.333 702.105C838.333 703.068 838.086 708.697 832.251 711.283C836.305 712.5 839.421 715.897 839.421 721.07C839.421 729.335 833.289 734 824.783 734C822.657 734 818.454 733.645 813.558 730.805C812.915 730.349 812.421 730.045 812.421 729.69C812.421 729.487 812.421 729.335 812.52 729.183L814.003 725.785C814.003 725.735 814.152 725.481 814.399 725.38C814.498 725.38 814.498 725.38 814.547 725.38C814.893 725.43 815.24 725.633 815.536 725.785C818.701 727.56 821.52 728.777 824.882 728.777C830.025 728.777 832.646 725.481 832.646 721.374C832.646 714.63 825.97 714.528 824.536 714.528H822.41C821.668 714.528 821.322 714.173 821.322 713.413V710.472V710.472Z" fill="#653598"/>
<path fill-rule="evenodd" clip-rule="evenodd" d="M902.421 712.5C902.421 729.436 892.758 734 885.395 734C878.084 734 868.421 729.436 868.421 712.5C868.421 695.564 878.084 691 885.395 691C892.758 691 902.421 695.564 902.421 712.5ZM875.425 712.5C875.425 716.912 875.834 728.777 885.395 728.777C895.007 728.777 895.416 716.912 895.416 712.5C895.416 708.088 895.007 696.223 885.395 696.223C875.834 696.223 875.425 708.088 875.425 712.5Z" fill="#653598"/>
<path fill-rule="evenodd" clip-rule="evenodd" d="M943.421 731.982C943.421 732.491 943.32 733 942.414 733H938.036C937.533 733 937.03 732.898 937.03 731.982V703.578C937.03 701.033 936.778 696.706 931.594 696.706C927.317 696.706 922.939 699.506 920.473 701.847V731.982C920.473 732.491 920.423 733 919.466 733H915.088C914.182 733 914.082 732.491 914.082 731.982V701.44C914.082 698.029 913.679 697.011 913.075 695.739L912.824 695.23C912.421 694.466 912.421 694.11 912.421 693.957C912.421 693.601 912.673 693.55 912.824 693.448L916.799 691.259C917.202 691.005 917.705 690.547 918.561 692.175C919.215 693.448 919.718 695.484 919.919 696.757C923.09 693.957 927.971 691.005 933.859 691.005C943.421 691.005 943.421 698.997 943.421 703.731V731.982V731.982Z" fill="#653598"/>
<path fill-rule="evenodd" clip-rule="evenodd" d="M954.421 709.794C954.421 709.397 954.521 709 955.426 709H974.366C975.32 709 975.421 709.397 975.421 709.794V713.206C975.421 713.603 975.32 714 974.366 714H955.426C954.923 714 954.421 713.921 954.421 713.206V709.794Z" fill="#653598"/>
<path fill-rule="evenodd" clip-rule="evenodd" d="M1002.31 731.484C1002.59 732.138 1002.27 732.339 1002.03 732.49C1000.27 733.497 997.52 734 995.798 734C993.704 734 991.33 733.346 989.841 731.886C988.817 730.981 988.026 729.37 987.747 727.357C987.421 725.445 987.421 720.815 987.421 720.312V674.164C987.421 673.51 987.747 673.258 988.026 673.157L992.075 672.05C992.401 672 992.633 672 992.773 672C993.424 672 993.331 672.654 993.331 673.057V720.916C993.331 723.231 993.331 725.093 993.564 726.25C994.029 728.364 995.658 728.817 996.822 728.817C997.985 728.817 999.288 728.313 999.847 728.062C1000.27 727.86 1000.73 727.709 1000.92 727.709C1001.1 727.709 1001.24 728.112 1001.24 728.213L1002.31 731.484V731.484Z" fill="#653598"/>
<path fill-rule="evenodd" clip-rule="evenodd" d="M1018.82 731.983C1018.82 732.898 1018.25 733 1017.73 733H1013.28C1012.76 733 1012.24 732.898 1012.24 731.983V697.489H1005.46C1004.94 697.489 1004.42 697.387 1004.42 696.471V693.215C1004.42 692.299 1004.94 692.198 1005.46 692.198H1017.68C1018.71 692.198 1018.82 693.063 1018.82 693.47V731.983V731.983ZM1015.09 672C1018.09 672 1020.42 674.289 1020.42 677.24C1020.42 680.242 1018.09 682.531 1015.09 682.531C1012.03 682.531 1009.7 680.242 1009.7 677.24C1009.7 674.289 1012.03 672 1015.09 672Z" fill="#653598"/>
<path fill-rule="evenodd" clip-rule="evenodd" d="M1062.42 731.982C1062.42 732.491 1062.37 733 1061.41 733H1057.04C1056.53 733 1056.03 732.898 1056.03 731.982V703.578C1056.03 701.033 1055.78 696.706 1050.59 696.706C1046.32 696.706 1041.94 699.506 1039.47 701.847V731.982C1039.47 732.491 1039.42 733 1038.47 733H1034.09C1033.18 733 1033.08 732.491 1033.08 731.982V701.44C1033.08 698.029 1032.68 697.011 1032.08 695.739L1031.82 695.23C1031.42 694.466 1031.42 694.11 1031.42 693.957C1031.42 693.601 1031.67 693.55 1031.82 693.448L1035.8 691.259C1036.2 691.005 1036.7 690.547 1037.56 692.175C1038.21 693.448 1038.72 695.484 1038.92 696.757C1042.09 693.957 1046.97 691.005 1052.86 691.005C1062.42 691.005 1062.42 698.997 1062.42 703.731V731.982V731.982Z" fill="#653598"/>
<path fill-rule="evenodd" clip-rule="evenodd" d="M1104.31 729.183C1104.41 729.335 1104.41 729.487 1104.41 729.69C1104.41 730.045 1103.91 730.552 1101.29 731.82C1098.82 732.884 1095.54 734 1091.76 734C1083.5 734 1073.42 729.183 1073.42 712.5C1073.42 698.758 1080.68 691 1090.25 691C1097.31 691 1105.42 694.6 1105.42 711.993V712.399C1105.42 713.616 1105.07 713.869 1104.46 713.869H1080.32V714.275C1080.32 724.112 1086.32 728.321 1091.92 728.321C1095.39 728.321 1098.42 727.002 1101.19 725.38C1101.54 725.177 1101.89 725.025 1102.2 724.923C1102.3 724.923 1102.3 724.923 1102.4 724.923C1102.45 724.923 1102.7 725.025 1102.8 725.38L1104.31 729.183V729.183ZM1098.52 708.596C1098.52 707.987 1098.52 704.64 1097.16 701.395C1095.49 697.338 1092.42 696.223 1089.65 696.223C1085.21 696.223 1080.48 699.519 1080.32 708.596H1098.52Z" fill="#653598"/>
</svg>
